<?xml version="1.0" encoding="UTF-8"?>
<svg id="Capa_2" data-name="Capa 2" xmlns="http://www.w3.org/2000/svg" viewBox="0 0 122.64 155.52">
  <defs>
    <style>
      .cls-1 {
        fill: #012939;
      }

      .cls-2 {
        fill: #012939;
      }
    </style>
  </defs>
  <g id="Capa_1-2" data-name="Capa 1">
    <g>
      <path class="cls-1" d="M38.09,79.8c.03.36.69.36.72,0,.32,0,.64,0,.96,0,1.13.56,2.68.47,3.83,0,.32.02.64-.01.96,0,.26,1.29-.65.12-.96.84-.19.46.48.32.49.49.01.23-.26.72-.26,1.17-.08,7.75.14,15.52.03,23.27-.01.88-.54,1.96.59.35.1-.05.22.34.36.48.16.16.33.31.48.48-.37.05-.62.59-.48.96h5.37s.14-.72.14-.72c-1.4-.03-2.81.04-4.21,0-.31,0-.55-.25-.58-.25,1.37-.22,3.64.3,4.87,0,.27-.06.25-.46.33-.66-.06-8.2.29-16.44.08-24.64-.01-.38-.5-1.79.11-1.79h19.28v75.72h-19.4l-.03-31.48c-.08-.31-.29-.34-.56-.39-.67-.12-4.48-.13-5.15,0-.54.1-1.28.69-1.21,1.31-.15,9.42.23,18.88.02,28.3-.02.68-.85,2.32.47,2.03v.24h-17.01c-.25-.6-.84-.77-.72,0h-.24c-.08-.54.24-1.04.24-1.56.02-1.88.28-3.73.23-5.75-.36-14.6-.31-29.44-.25-43.85.02-5.19-.14-10.46,0-15.6.04-1.52,1.16-7.11-.24-7.89-.47-.26-1.64-.04-.95-1.09,3.47-.44,8.99-.02,12.7,0Z"/>
      <path class="cls-2" d="M87.43,155.52c-1.71-1.24-3.77-1.88-5.49-3.25-5.29-4.21-5.7-9.81-6.25-16.04-.94-10.68-.87-23.48-.47-34.27.21-5.69.5-11.34,4.19-15.94,7.49-9.35,24.9-10.11,34.35-3.69,5.89,4,7.13,8.87,7.69,15.67-.39.24-.38,1.21,0,1.44,0,.16,0,.32,0,.48-.65,0-.67.28-.73.83-.12,1.11-.12,10.07.26,10.44.35.34.43-.02.48-.35.32-2.54,0-6.44-.02-9.14,0-.44.26-.77.26-.81-.31,3.52.41,7.73.01,11.16-.03.24-.11.83-.37.83h-18.44c-.07,0-.65-.37-.72-.48-.45-5.15.18-10.53-.11-15.71-.06-1.05-.26-3.52-.68-4.36-.67-1.37-3.34-1.55-4.58-.89s-1.82,3.53-1.94,4.89c-.73-.13-.46.37-.48.83-.53,13.52.2,27.4.24,40.87.63,1.78.23,4.64,2.07,5.71,1.58.93,3.97.56,4.75-1.17.19-.43.61-3.64.61-4.19v-13.06c.24.08.52-.24.6-.24h18.68c.26,0,.34.59.37.83.27,2.33-.23,5.17-.01,7.56,0-.03-.25-.27-.25-.58-.01-1.61.27-4.35,0-5.77-.07-.41-.26-.67-.72-.6.2,2.32-.27,5.05-.01,7.32.06.54.08.83.73.83-.2,10.21-2.1,15.68-11.59,20.16-.35.16-.71.3-.87.69h-21.56ZM94.61,138.98c.17-.34-.15-.64-.23-.48-.17.34.15.64.23.48Z"/>
      <path class="cls-1" d="M.48,1.44l.96-.24c.32,0,.64,0,.96,0l17.25.24c.29.85-.97.27-.96.6.43,1.11.19,2.31.24,3.47l.72-.24v53.44h-.24v-20.61c-.83.3-.24,1.15-.23,1.79.13,6.89-.13,13.77-.24,20.63,0,.41-.29,1.02-.25,1.06.54.57.86-1.43.72-1.67l.48.72c-.1.59-.03.9.48,1.2l-.12.96,10.53.23.37-.58c-.16-.24-.32-.31-.6-.36-2.58-.47-6.57.28-9.36.01-.35-.03-.45-.21-.58-.25h11.15s-.13,15.1-.13,15.1H0V1.2c.14.04.39.25.48.24ZM19.4,37.14V6.47c-.99.67-.25,2.22-.23,3.22.22,8.66.14,17.54,0,26.14,0,.57-.62,1.5.23,1.31Z"/>
      <path class="cls-1" d="M18.92,79.8c1.85.93-.16.39-.24.84v74.28s.71.36.71.36v-1.32s.24.6.24.6c-.02.24.29.65,0,.96H.96c-.58-.11-.67-1.33-.42-1.63.09-.11.42-.02.42-.05v-72.97c0-.3-.93-.09-.96-.6v-.48c6.22.27,12.74-.36,18.92,0Z"/>
      <path class="cls-2" d="M25.39,79.8c-.69,1.05.48.82.95,1.09,1.4.77.28,6.37.24,7.89-.14,5.14.02,10.4,0,15.6-.07,14.41-.11,29.25.25,43.85.05,2.02-.22,3.87-.23,5.75,0,.52-.32,1.02-.24,1.56h-1.44v-75.58c-.03-.26.31-.12.48-.14ZM25.39,154.2v-73.21h-.24v73.93c0,.05.42.44.48.36.17-.41-.22-.85-.24-1.08Z"/>
      <path class="cls-2" d="M0,80.28c.02.51.96.3.96.6v72.97s-.33-.06-.42.05c-.26.3-.16,1.52.42,1.63h-.96v-75.24Z"/>
      <path class="cls-2" d="M27.31,155.52h-.72c-.12-.77.47-.6.72,0Z"/>
      <path class="cls-1" d="M40,17.25c8.92-5.18,27.06-5.51,32.62,4.87,1.75,3.26,1.67,7.26,1.86,10.84.77,14.38-.06,28.95.26,43.38l-.25.59-17.73-.24c-.58-.58-.06-3.8-.24-4.79-.28.03-.52-.13-.74.15-.43.55-.74,1.63-1.42,2.37-4.53,4.93-14.39,4.46-18.92-.12l.72-.96c-1.73.46-1.26-.94-1.72-1.76-.18-.32-.67-.36-.69-.53-.06-.58.92-2.5.49-3.45l-1.2,1.68c-.86-3.99-.96-9.39-.73-13.55.18-3.29.61-5.77,3.12-8.02.09,1.14,1.44.57,1.91.11.26-.25.17-.63.31-.78.21-.23,1.15.33.42-1.01,2.65-1.51,4.57-2.26,7.43-3.35.89-.42,1.27.48,1.35.49.38.04.86-.31,1.29-.25.11-1.09-1.42.22-.72-1.2.08-.01.16,0,.24,0,.34-.03.98-.07,1.27,0,.19.05.19.88,1.36.23l-.72-.48c.19-.71.51-.93,1.28-.71.07.02.69,1.16,1.12.11.26-.63-.98-.02-.72-.84.36-.17.81-.16.96-.24,1.13,0,2.71.46.96-.48,1.8-1.02,2.44-2,2.63-4.07l1.2.48.02-7.03-1.22-.15c-.07-.82-.64-2.84-1.33-3.34-.34-.25-.77-.23-1.17-.27-.81-.08-1.92.28-2.29.25-.21-.02-.63-.6-.72-.48.04.91-.04,1.33-.96.96.02.64-.28,1.67.72,1.68-.72,3.36.16,7.33-.23,10.68-.03.24-.11.83-.37.83h-16.53c-.09,0-.39-.24-.56-.28.02-6.28-.72-12.86,3.56-17.93l1.2.24c-.12-1.89.14-.88.81-1.01.31-.06,3.02-1.82,2.07-2.58ZM52.58,40.5v.24c.16-.08.16-.16,0-.24ZM50.66,41.46v.24c.16-.08.16-.16,0-.24ZM55.81,64.22c.72.2.49,1.15,1.2.96v-14.62s.58.22.48-.36c-.04-.22-.34-.07-.49-.28-.5-.73.09-1.52-.03-1.72-.04-.07-.4-.1-.54-.3-.19-.26-.2-.85-.52-.92-.56-.13-2.02.82-2.43,1.24s.03,1.18-1.27.89c.56.73-.32.99-.88,1.53-.12.12-.04.47-.11.57s-2.26-.03-.45,1.25c-1.05,2.52-1.23,8.88-.66,11.56.67,3.16,2.83,3.73,5.41,2.06-.15-.66.24-1.49.28-1.88Z"/>
      <path class="cls-2" d="M18.92,79.8c.27.02.92-.13.96.14v73.81c.15.3-.23.71-.24.81l-.24-.6v1.32s-.73-.36-.73-.36v-74.28c.09-.45,2.1.09.25-.84Z"/>
      <path class="cls-2" d="M2.4,1.2c5.82-.07,11.66.06,17.49,0v59.43s-.48-.72-.48-.72c.14.25-.18,2.25-.72,1.67-.04-.04.25-.65.25-1.06.11-6.87.37-13.74.24-20.63-.01-.64-.6-1.48.23-1.79v20.61h.24V5.27l-.72.24c-.06-1.16.18-2.36-.24-3.47-.01-.33,1.25.25.96-.6l-17.25-.24Z"/>
      <path class="cls-2" d="M44.79,106.4c-.13-.14-.26-.53-.36-.48-1.13,1.62-.6.53-.59-.35.12-7.75-.11-15.52-.03-23.27,0-.45.28-.94.26-1.17,0-.17-.68-.03-.49-.49.3-.73,1.22.45.96-.84l.24,26.6Z"/>
      <path class="cls-1" d="M94.85,96.33c-.02.24.01.48,0,.72-.4.25-.24.91-.24,1.31-.16,13.14.13,26.29,0,39.42v.24c-.04-13.47-.77-27.34-.24-40.87.02-.46-.25-.96.48-.83Z"/>
      <path class="cls-2" d="M94.61,137.79c.13-13.13-.17-26.29,0-39.42,0-.41-.15-1.07.24-1.31-.67,12.8.14,26.49,0,39.42,0,.41.15,1.07-.24,1.31Z"/>
      <path class="cls-2" d="M55.81,28.52l1.22.15-.02,7.03-1.2-.48c.16-1.75.16-4.95,0-6.71Z"/>
      <path class="cls-1" d="M121.44,99.93s.24.45.24.96c0,.04-.26.37-.26.81.02,2.7.34,6.6.02,9.14-.04.33-.13.69-.48.35-.38-.36-.38-9.33-.26-10.44.06-.54.08-.83.73-.83Z"/>
      <path class="cls-2" d="M20.6,61.82c.13.04.23.22.58.25,2.79.27,6.78-.48,9.36-.01.28.05.44.12.6.36l-.37.58-10.53-.23.12-.96c.05.03.16-.02.24,0Z"/>
      <path class="cls-1" d="M121.68,133.47c0,.56-.24,1.07-.24,1.2-.65,0-.67-.28-.73-.83-.25-2.27.21-5,.01-7.32.46-.07.64.19.72.6.26,1.42-.02,4.16,0,5.77,0,.31.25.55.25.58Z"/>
      <path class="cls-2" d="M33.06,69.25l1.2-1.68c.43.95-.54,2.87-.49,3.45.02.17.51.21.69.53.46.82-.01,2.22,1.72,1.76l-.72.96c-1.75-1.77-1.9-2.7-2.4-5.03Z"/>
      <path class="cls-2" d="M40,17.25c.95.76-1.75,2.52-2.07,2.58-.67.13-.93-.88-.81,1.01l-1.2-.24c1.47-1.74,2.17-2.25,4.07-3.35Z"/>
      <path class="cls-2" d="M74.49,76.92c-2.14-.26-17.04.44-17.73-.24l17.73.24Z"/>
      <path class="cls-2" d="M45.51,106.88s.26.24.58.25c1.4.03,2.81-.04,4.21,0l-.14.72h-5.37c-.14-.37.11-.91.48-.96.07-.01.16,0,.24,0Z"/>
      <path class="cls-2" d="M38.09,46.01c.73,1.34-.21.78-.42,1.01-.14.15-.05.53-.31.78-.48.46-1.82,1.04-1.91-.11,1.14-1.02,1.47-1.01,2.63-1.68Z"/>
      <path class="cls-2" d="M51.02,25.16c-.53.65-.78,1.34-.96,2.16-1-.01-.7-1.04-.72-1.68.92.38,1-.04.96-.96.09-.12.51.46.72.48Z"/>
      <path class="cls-2" d="M47.43,41.7c-.7,1.41.82.1.72,1.2-.43-.05-.91.29-1.29.25-.08,0-.46-.91-1.35-.49.59-.23,1.01-.8,1.92-.96Z"/>
      <path class="cls-2" d="M51.26,40.02c-.27.81.97.2.72.84-.43,1.05-1.05-.09-1.12-.11-.77-.21-1.09,0-1.28.71l.72.48c-1.17.65-1.17-.18-1.36-.23-.29-.08-.93-.03-1.27,0,1.2-.54,2.4-1.12,3.59-1.68Z"/>
      <path class="cls-2" d="M43.59,79.8c-1.15.47-2.7.56-3.83,0,1.27.01,2.57-.06,3.83,0Z"/>
      <path class="cls-2" d="M53.18,39.3c1.76.94.17.48-.96.48.28-.14.73-.35.96-.48Z"/>
      <path class="cls-1" d="M121.44,99.45c-.38-.23-.39-1.2,0-1.44.04.47-.01.96,0,1.44Z"/>
      <path class="cls-2" d="M1.44,1.2l-.96.24c.11-.01.42-.22.96-.24Z"/>
      <path class="cls-2" d="M38.8,79.8c-.03.36-.69.36-.72,0,.24,0,.48,0,.72,0Z"/>
      <path class="cls-2" d="M45.03,123.65c-.27.4-.24.85-.25,1.31-.3,9.97.23,20,.03,29.98l-.5.34c-1.32.29-.48-1.35-.47-2.03.21-9.42-.17-18.87-.02-28.3-.07-.62.67-1.2,1.21-1.31Z"/>
      <path class="cls-1" d="M94.61,138.98c-.08.16-.41-.14-.23-.48.08-.16.41.14.23.48Z"/>
      <path class="cls-2" d="M19.4,37.14c-.84.19-.24-.74-.23-1.31.14-8.6.22-17.48,0-26.14-.03-1.01-.76-2.56.23-3.22v30.67Z"/>
      <path class="cls-1" d="M25.39,154.2c.02.23.41.67.24,1.08-.06.08-.48-.3-.48-.36v-73.93h.24v73.21Z"/>
      <path class="cls-2" d="M50.78,52.48c-1.81-1.28.37-1.15.45-1.25s0-.45.11-.57c.55-.55,1.44-.8.88-1.53,1.3.29.84-.45,1.27-.89s1.87-1.37,2.43-1.24c.32.07.33.66.52.92.14.19.5.23.54.3.11.2-.47.99.03,1.72.15.21.45.06.49.28.1.57-.48.32-.48.36v14.62c-.7.19-.48-.76-1.2-.96.45-5.35-.53-11.19.24-16.53-.44-.53-4.96,4.05-5.27,4.79Z"/>
      <path class="cls-2" d="M50.66,41.46c.16.08.16.16,0,.24v-.24Z"/>
      <path class="cls-2" d="M52.58,40.5c.16.08.16.16,0,.24v-.24Z"/>
    </g>
  </g>
</svg>