<?xml version="1.0" encoding="UTF-8"?>
<svg id="Capa_2" data-name="Capa 2" xmlns="http://www.w3.org/2000/svg" viewBox="0 0 594 232">
  <defs>
    <style>
      .cls-1 {
        fill: #f6f9fa;
      }
    </style>
  </defs>
  <g id="Capa_1-2" data-name="Capa 1">
    <g>
      <path class="cls-1" d="M347,0v89c26.37-35.14,77.39-27.45,89.49,16.01,1.01,3.64,3.51,13.28,3.51,16.49v107.5h-50v-104.5c0-2.23-3.06-10.32-4.57-12.43-6.79-9.49-25.35-7.27-33.76-.89-.87.66-4.67,3.9-4.67,4.33v113.5h-50V0h50Z"/>
      <path class="cls-1" d="M104,232c-4.44-2.11-9.41-2.63-13.98-4.52-32.63-13.45-36.69-62.18-7.15-81.11,21.33-13.67,47.86-11.29,72.13-11.37v-17.5c0-.7-2.97-7.22-3.73-8.27-8.26-11.32-35.12-7.88-32.27,9.77h-49c-1.34-56.24,89.67-66.01,121.05-33.55,22.42,23.2,11.96,75.97,13.96,107.04.81,12.59,4.68,24.48,7.99,36.51h-48.5l-4.54-9.46-3.95-14.53c-4.6,10.15-13.49,20.46-24.02,24.48l-7.99,2.51h-20ZM155,162h-28.5c-3.25,0-10.28,7.05-11.69,10.31-9.99,23.11,17.64,30.61,33.66,17.66,1.32-1.07,6.52-6.27,6.52-7.48v-20.5Z"/>
      <path class="cls-1" d="M594,120v11h-46c-.53-16.35-7.49-27.39-25.41-24.91-22.51,3.12-21.95,43.67-19.47,60.3,1.54,10.33,4.98,22.48,16.06,25.94,15.8,4.93,29.66-2.74,28.82-20.33l46,1.01v10c-2.44,6.41-3.44,12.49-6.83,18.67-9.71,17.66-29.01,26.86-48.17,30.33h-25c-12.66-3.59-24.09-6.5-34.47-15.03-36.23-29.75-36.59-103.53-1-133.94,29.66-25.34,91.56-21.4,109.35,16.59l6.12,20.38Z"/>
      <rect class="cls-1" x="0" y="0" width="50" height="229"/>
      <rect class="cls-1" x="226" width="51" height="34"/>
      <rect class="cls-1" x="226" y="70" width="51" height="159"/>
    </g>
  </g>
</svg>