<?xml version="1.0" encoding="UTF-8"?>
<svg id="Capa_2" data-name="Capa 2" xmlns="http://www.w3.org/2000/svg" viewBox="0 0 327 267">
  <defs>
    <style>
      .cls-1 {
        fill: #5f5f5f;
      }

      .cls-2 {
        fill: #2c5776;
      }
    </style>
  </defs>
  <g id="Capa_1-2" data-name="Capa 1">
    <g>
      <path class="cls-1" d="M196,18v58c7.84-11.98,25.86-14.53,34.44-1.94,1.52,2.23,4.56,10.12,4.56,12.44v161.5h-33V94c-2.84-.79-5,.56-5,3.5v150.5h-33V18h32Z"/>
      <path class="cls-2" d="M124,248h-33c-.29,0,.64-4.49-.5-5-14.94,16.64-35.67,7.27-37.54-14.47-1.37-15.86-1.21-44.1,0-60.08,1.63-21.73,19.04-28.28,38.04-21.46v-50.5c0-3.59-5-2.75-5-1v35c0,.11-1.39,1.5-1.5,1.5h-30.5v-40.5c0-.63,2.28-7,2.81-8.19,12.68-28.65,67.19-20.84,67.19,11.19v153.5ZM91,161c-2.97-1.07-6,1.8-6,4.5v56c0,1.74,6,4.44,6,0v-60.5Z"/>
      <path class="cls-1" d="M308,144h-30.5c-.11,0-1.5-1.39-1.5-1.5v-48.5c0-.2-4-.2-4,0v128.5c0,1.72,4,1.72,4,0v-51c0-.11,1.39-1.5,1.5-1.5h30.5v51.5c0,13.04-12.85,27.25-25.74,29.26-23.38,3.64-41.06-7-43.3-31.22,2.16-39.54-2.74-81.87,0-121.08,1.72-24.67,19.29-35.74,43.1-32.01,12.94,2.03,25.95,15.81,25.95,29.05v48.5Z"/>
      <rect class="cls-2" x="17" y="18" width="33" height="230"/>
      <rect class="cls-1" x="128" y="69" width="33" height="179"/>
      <path class="cls-1" d="M138.74,20.24c20.51-3.49,27.37,13.28,21.56,30.56-4.58,13.62-28.69,13.18-32.63.03-3.06-10.21-2.18-28.34,11.07-30.59Z"/>
    </g>
  </g>
</svg>